<?xml version="1.0" encoding="UTF-8" standalone="no"?>
<!-- Created with Inkscape (http://www.inkscape.org/) -->

<svg
   xmlns:dc="http://purl.org/dc/elements/1.1/"
   xmlns:cc="http://creativecommons.org/ns#"
   xmlns:rdf="http://www.w3.org/1999/02/22-rdf-syntax-ns#"
   xmlns:svg="http://www.w3.org/2000/svg"
   xmlns="http://www.w3.org/2000/svg"
   xmlns:sodipodi="http://sodipodi.sourceforge.net/DTD/sodipodi-0.dtd"
   xmlns:inkscape="http://www.inkscape.org/namespaces/inkscape"
   width="444.84625"
   height="437.31665"
   id="svg2"
   version="1.1"
   inkscape:version="0.48.4 r9939"
   sodipodi:docname="Nouveau document 1">
  <title
     id="title3409">Dickbutt Engine - Logo</title>
  <defs
     id="defs4" />
  <sodipodi:namedview
     id="base"
     pagecolor="#ffffff"
     bordercolor="#666666"
     borderopacity="1.0"
     inkscape:pageopacity="0.0"
     inkscape:pageshadow="2"
     inkscape:zoom="0.49497475"
     inkscape:cx="319.6241"
     inkscape:cy="211.06255"
     inkscape:document-units="px"
     inkscape:current-layer="layer1"
     showgrid="false"
     fit-margin-top="0"
     fit-margin-left="0"
     fit-margin-right="0"
     fit-margin-bottom="0"
     inkscape:window-width="1282"
     inkscape:window-height="748"
     inkscape:window-x="80"
     inkscape:window-y="-4"
     inkscape:window-maximized="1" />
  <metadata
     id="metadata7">
    <rdf:RDF>
      <cc:Work
         rdf:about="">
        <dc:format>image/svg+xml</dc:format>
        <dc:type
           rdf:resource="http://purl.org/dc/dcmitype/StillImage" />
        <dc:title>Dickbutt Engine - Logo</dc:title>
      </cc:Work>
    </rdf:RDF>
  </metadata>
  <g
     inkscape:label="Calque 1"
     inkscape:groupmode="layer"
     id="layer1"
     transform="translate(-82.08125,-40.629679)">
    <path
       style="fill:#000000"
       d="m 419.09916,173.37993 c 0.41964,1.06854 0.97034,1.93031 0.95594,3.44281 -0.014,1.5125 -0.8382,4.55 -1.8307,6.75 -1.8044,4 -1.8044,4 2.2624,6.32614 4.0668,2.32615 4.0668,2.32615 6.3306,-0.30576 1.2452,-1.44755 2.2639,-3.43707 2.2639,-4.42116 0,-0.98408 0.8817,-2.58721 1.9594,-3.5625 1.0777,-0.97528 4.0222,-2.00575 6.5433,-2.28992 3.4916,-0.39355 5.6039,0.008 8.8643,1.68481 2.3542,1.21081 5.0347,3.47846 5.9567,5.03923 0.922,1.56076 1.6763,4.00992 1.6763,5.44257 0,1.67054 -2.3884,5.73999 -6.6588,11.34571 -3.6624,4.80748 -10.5321,13.24088 -15.2661,18.74088 -4.734,5.5 -11.7965,13.825 -15.6945,18.5 -3.898,4.675 -9.7408,11.23687 -12.9839,14.58194 -5.8967,6.08194 -5.8967,6.08194 -4.3967,10.68505 1.0703,3.28453 2.6458,5.44225 5.5,7.53252 2.2,1.61118 4.9808,4.00291 6.1796,5.31496 1.1987,1.31204 3.739,4.98057 5.6449,8.15228 1.906,3.17172 4.4127,9.27736 5.5705,13.5681 1.1577,4.29074 2.105,9.3722 2.105,11.29212 0,1.91992 -0.6607,4.36428 -1.4682,5.4319 -0.8418,1.11298 -1.4818,4.16495 -1.5,7.15362 -0.017,2.86687 -0.97,7.71993 -2.1166,10.78458 -1.3235,3.53748 -4.0838,7.73132 -7.5595,11.48546 -3.0111,3.25236 -8.3661,7.73946 -11.9001,9.97133 -3.5339,2.23187 -9.0196,5.20771 -12.1904,6.61296 -3.1709,1.40526 -8.9152,3.44048 -12.7652,4.52271 -3.8782,1.09015 -12.05822,2.24834 -18.34198,2.59698 -8.29108,0.46002 -11.48491,1.00177 -11.87333,2.01399 -0.29225,0.76158 -2.32698,2.30075 -4.52162,3.42037 -3.99027,2.03568 -3.99027,2.03568 -3.5398,18.70741 0.38806,14.36236 0.78472,17.61065 2.86359,23.45005 2.41314,6.77833 2.41314,6.77833 20.91314,7.24037 10.175,0.25412 23,0.93367 28.5,1.51009 5.5,0.57643 16.525,2.18213 24.5,3.56823 7.975,1.38609 20.9683,3.8438 28.8741,5.46158 9.1428,1.8709 17.5134,2.95492 23,2.97855 4.7442,0.0204 14.416,0.433 21.4927,0.91682 7.0768,0.48381 13.3543,1.36709 13.95,1.96284 0.5958,0.59576 2.0485,1.08319 3.2282,1.08319 1.1798,0 2.8898,0.82293 3.8,1.82874 0.9103,1.00581 1.655,2.35581 1.655,3 0,0.64419 0.3006,1.17126 0.6681,1.17126 0.3674,0 3.4746,-0.48874 6.9049,-1.08609 4.6273,-0.80582 6.7931,-0.78836 8.3926,0.0677 1.392,0.74502 2.0457,1.91503 1.8451,3.30267 -0.1709,1.18191 -1.4357,2.70261 -2.8107,3.37935 -1.375,0.67673 -8.6256,2.59902 -16.1123,4.27174 -7.4868,1.67273 -19.4118,3.91174 -26.5,4.97557 -7.0883,1.06384 -21.2127,2.45544 -31.3877,3.09246 -10.175,0.63701 -23.9,1.29741 -30.5,1.46754 -6.6,0.17013 -18.3,-0.0802 -26,-0.55633 -7.7,-0.47611 -20.4598,-1.57307 -28.35501,-2.4377 -7.89526,-0.86463 -17.04976,-2.26242 -20.34334,-3.1062 -5.98418,-1.53307 -5.9926,-1.5321 -12.14499,1.40452 -3.38616,1.61626 -9.19416,3.96377 -12.90666,5.21669 -4.87948,1.64676 -6.75,2.76093 -6.75,4.02063 0,0.95843 -0.5625,2.17944 -1.25,2.71336 -0.6875,0.53391 -8,1.4935 -16.25,2.13242 -8.25,0.63892 -19.275,1.09102 -24.5,1.00467 -5.225,-0.0863 -12.2,-0.492 -15.5,-0.90145 l -5e-5,-1.2e-4 c -3.3,-0.40944 -9.73617,-0.79328 -14.30259,-0.85298 -4.56643,-0.0597 -11.54143,-0.82414 -15.5,-1.69877 -3.95858,-0.87463 -10.83819,-3.32778 -15.28803,-5.45144 -5.39157,-2.57309 -9.97251,-5.71325 -13.73174,-9.41289 -3.10261,-3.05344 -5.91406,-6.63922 -6.24766,-7.9684 -0.40266,-1.60431 -2.69823,-3.63995 -6.82897,-6.05569 -3.42233,-2.00146 -8.40507,-5.30003 -11.07274,-7.33018 -2.66768,-2.03014 -5.71082,-4.85512 -6.76253,-6.27774 -1.05172,-1.42261 -2.15447,-4.3927 -2.45055,-6.60019 -0.4301,-3.20659 -0.18881,-4.14775 1.19998,-4.68068 0.95608,-0.36688 2.33607,-0.17097 3.06665,0.43536 1.00366,0.83296 2.13367,0.4994 4.62325,-1.3647 1.81221,-1.3569 4.65086,-3.15167 6.3081,-3.98837 1.65725,-0.8367 5.112,-1.836 7.67722,-2.22068 2.74297,-0.41134 7.68021,-0.1557 11.98682,0.62065 4.02754,0.72603 7.595,1.33471 7.92769,1.35262 0.3327,0.0179 4.5013,-7.49022 9.26356,-16.68474 8.65866,-16.7173 8.65866,-16.7173 5.5244,-18.33809 -1.72384,-0.89144 -4.31744,-1.77544 -5.76356,-1.96447 -1.44611,-0.18902 -6.84015,-2.63791 -11.98675,-5.44197 -5.14659,-2.80406 -15.27159,-9.11611 -22.5,-14.02678 -7.2284,-4.91067 -16.98994,-12.43464 -21.69232,-16.71994 -4.70237,-4.28529 -10.35655,-9.36644 -12.56485,-11.29144 -2.2083,-1.925 -7.1567,-7.55 -10.99643,-12.5 -3.83973,-4.95 -9.29534,-12.53697 -12.12358,-16.85994 -3.36683,-5.14619 -7.91477,-14.81353 -13.17243,-28 -4.41659,-11.07703 -8.93169,-23.51506 -10.03354,-27.64006 -1.10186,-4.125 -2.6905,-12.9 -3.5303,-19.5 -0.83981,-6.6 -2.51001,-18.075 -3.71157,-25.5 -1.55802,-9.62773 -2.20225,-18.08936 -2.246,-29.5 -0.0505,-13.16717 0.24759,-16.68557 1.68356,-19.87212 0.9597,-2.12967 1.74491,-4.00727 1.74491,-4.17245 0,-0.16518 -1.5392,-0.80831 -3.42043,-1.42917 -1.88124,-0.62087 -4.58124,-2.65074 -6,-4.51083 -2.30627,-3.02367 -2.57957,-4.28464 -2.57957,-11.90166 0,-4.68581 0.53343,-9.69041 1.18539,-11.12131 0.65197,-1.43091 3.79245,-4.56141 6.97885,-6.95667 3.1864,-2.39526 6.14047,-4.50819 6.56461,-4.69541 0.42413,-0.18721 1.99667,-2.91343 3.49452,-6.05825 1.49785,-3.144816 5.17663,-9.520716 8.17506,-14.168667 2.99843,-4.64794 9.2887,-12.69917 13.97837,-17.891627 8.37769,-9.275869 8.7765,-9.564273 22.82493,-16.506097 7.86405,-3.8859 17.67327,-8.084202 21.79827,-9.329561 6.1871,-1.867919 9.95074,-2.274958 21.5,-2.325236 10.59031,-0.0461 14.73065,0.306767 17,1.448865 2.8679,1.44333 3.01294,1.828616 3.29381,8.75 0.16159,3.982104 0.38659,7.259804 0.5,7.283778 0.1134,0.02397 4.70619,0.439943 10.20619,0.924377 5.5,0.484433 12.38599,1.614227 15.3022,2.510653 2.91621,0.896427 5.55185,2.280456 5.85699,3.075623 0.30513,0.795167 0.26168,2.008258 -0.0965,2.695758 -0.35824,0.6875 -1.92665,3.724997 -3.48536,6.749997 -2.83401,5.5 -2.83401,5.5 1.94272,10.58267 2.6272,2.79547 5.90185,7.303011 7.27701,10.016751 1.37516,2.71374 3.01324,6.839036 3.64018,9.167326 1.10052,4.08701 1.28539,4.23863 5.35135,4.38878 2.3163,0.0855 5.26066,0.0628 6.54302,-0.0506 1.28236,-0.11339 3.86986,0.30152 5.75,0.92203 2.33196,0.76961 3.41844,1.74601 3.41844,3.07207 0,1.07698 -1.06151,2.42754 -2.38026,3.02841 -1.78543,0.81349 -2.80266,2.645 -4.07053,7.32889 -0.92965,3.4344 -3.42252,9.96988 -5.53971,14.52328 -2.76508,5.9468 -3.6295,8.87344 -3.06869,10.38947 0.42941,1.1608 0.59143,5.94014 0.36003,10.62076 -0.42071,8.5102 -0.42071,8.5102 9.21854,14.89976 9.63926,6.38956 9.63926,6.38956 13.6714,4.12337 4.03215,-2.26619 4.03215,-2.26619 6.38472,0.61044 1.29392,1.58215 2.36876,3.2912 2.38854,3.79789 0.0198,0.50669 0.82346,1.79177 1.78596,2.85573 1.50023,1.65837 1.72585,3.81046 1.58077,15.07874 -0.12483,9.69533 -0.66299,14.71861 -2.05102,19.14427 -1.83101,5.83811 -1.97485,5.99804 -5.33077,5.92748 -1.89694,-0.0399 -4.79898,-0.26489 -6.44898,-0.5 -3,-0.42748 -3,-0.42748 -3.5,9.31827 -0.43083,8.39753 -0.26063,9.95017 1.23033,11.22337 1.26184,1.07755 1.57438,2.36477 1.15434,4.75425 -0.57598,3.27663 -0.57598,3.27663 1.36291,0.26025 1.06638,-1.65901 4.22678,-5.0734 7.0231,-7.58754 2.79633,-2.51413 8.43344,-6.2043 12.52691,-8.20036 4.09347,-1.99607 11.43862,-4.85235 16.32255,-6.34729 7.66999,-2.34774 10.67817,-2.72696 22.07858,-2.78325 9.30073,-0.0459 13.56825,0.30398 14.45,1.18482 0.6882,0.6875 1.57407,1.25 1.9686,1.25 0.39453,0 2.31276,-4.8375 4.26273,-10.75 1.94998,-5.9125 4.46218,-14.11596 5.58268,-18.2299 1.1205,-4.11395 2.03727,-9.773 2.03727,-12.57569 0,-4.18496 0.46125,-5.52911 2.58056,-7.5201 2.35754,-2.21475 3.40224,-2.42431 12.08654,-2.42431 9.1334,0 9.5989,0.10795 11.8749,2.75394 1.3029,1.51467 2.6837,4.43224 3.0685,6.48348 0.6997,3.72953 0.6997,3.72953 2.0361,-0.13073 0.7453,-2.15265 1.08,-5.46427 0.7567,-7.48636 -0.4504,-2.81664 -0.084,-4.25652 1.6414,-6.45007 2.1096,-2.68191 2.5674,-2.80751 9.1019,-2.4971 5.8154,0.27624 7.58317,1.52317 8.87106,1.69474 1.67877,1.40828 2.58055,2.37078 3.0002,3.43934 z M 221.86,438.82266 c 2.27448,-3.9875 5.02644,-9.27593 6.11546,-11.75206 1.08902,-2.47614 3.38604,-9.67614 5.10449,-16 1.71846,-6.32387 4.6364,-14.46661 6.48431,-18.09497 3.35985,-6.59704 3.35985,-6.59704 -1.92178,-7.55437 -5.28162,-0.95733 -5.28162,-0.95733 -14.48569,17.48277 -6.50659,13.03576 -8.89217,18.752 -8.13981,19.50436 0.58535,0.58535 1.06427,2.35875 1.06427,3.94089 0,2.66024 -0.25485,2.85466 -3.38813,2.58471 -1.86347,-0.16055 -4.09186,0.29213 -4.95196,1.00596 -0.86011,0.71382 -2.37295,1.1319 -3.36187,0.92906 -1.30548,-0.26777 -1.76069,-1.22117 -1.66171,-3.48031 0.11841,-2.70269 -0.25934,-3.19064 -2.875,-3.71377 -1.65623,-0.33125 -5.54258,-0.6045 -8.63633,-0.60722 -3.09375,-0.003 -7.7625,0.76118 -10.375,1.69755 -2.6125,0.93637 -4.75,1.95174 -4.75,2.25637 0,0.30463 4.60393,3.4767 10.23096,7.04903 9.1129,5.78535 10.70752,6.46315 14.59184,6.20235 2.39848,-0.16104 4.99455,0.2331 5.76904,0.87587 0.77449,0.64277 1.40816,2.01357 1.40816,3.04622 0,1.57715 0.77148,1.87756 4.82166,1.87756 4.82166,0 4.82166,0 8.95709,-7.25 z m 100.74915,3.63976 c 1.48623,-0.97381 3.41178,-1.37073 4.87191,-1.00426 1.32792,0.33328 3.08569,0.86357 3.90618,1.17842 1.16715,0.44788 1.62354,-0.58487 2.09724,-4.74573 0.33299,-2.92501 0.64524,-6.21819 0.69388,-7.31819 0.0486,-1.1 -1.16628,-5.825 -2.69983,-10.5 -2.55867,-7.8001 -2.79275,-9.79688 -2.84277,-24.25012 -0.03,-8.66257 -0.27951,-15.74344 -0.55451,-15.73528 -0.275,0.008 -3.07226,0.81799 -6.21613,1.7996 -3.14388,0.9816 -5.93537,2.00397 -6.20333,2.27192 -0.26795,0.26796 0.64218,3.59856 2.02251,7.40134 1.38034,3.80278 2.7733,9.73693 3.09547,13.187 0.40045,4.28826 1.17355,6.80478 2.44362,7.95418 1.02182,0.92473 1.85786,2.45649 1.85786,3.4039 0,0.94742 -0.71154,2.3131 -1.5812,3.03485 -1.25315,1.04002 -1.98407,1.06069 -3.52303,0.0996 -1.37308,-0.8575 -2.50163,-0.9131 -3.85306,-0.18984 -1.05118,0.56257 -2.56767,1.02286 -3.36998,1.02286 -0.80231,0 -1.74665,-0.75025 -2.09852,-1.66722 -0.35188,-0.91697 -0.17502,-2.13197 0.39301,-2.7 0.56803,-0.56804 1.03278,-1.36979 1.03278,-1.78169 0,-0.41189 -2.42631,-1.51373 -5.39179,-2.44851 -2.96549,-0.93479 -6.12224,-1.41932 -7.01501,-1.07673 -0.89277,0.34259 -2.10581,1.87192 -2.69566,3.39851 -0.77963,2.01781 -0.74322,4.27728 0.13338,8.27563 0.6632,3.025 2.01513,7.075 3.00429,9 0.98916,1.925 2.84839,4.14995 4.13163,4.94434 1.28324,0.79439 4.78169,2.93189 7.77433,4.75 2.99265,1.81811 6.04598,3.30566 6.78518,3.30566 0.73921,0 2.44991,-0.72461 3.80155,-1.61024 z m -28.44803,-6.52982 c -1.10077,-1.86567 -2.7342,-6.25249 -3.62983,-9.74849 -1.18501,-4.62554 -1.44014,-8.23126 -0.93695,-13.24179 0.57461,-5.72174 1.11949,-7.22209 3.22405,-8.87754 1.61754,-1.27235 4.05232,-1.99212 6.73879,-1.99212 2.31341,0 6.30273,0.63096 8.86514,1.40213 3.36964,1.01412 4.65593,1.0833 4.64811,0.25 -0.006,-0.63367 -0.63237,-3.17713 -1.39202,-5.65213 -0.75966,-2.475 -2.12394,-6.33825 -3.03174,-8.58501 -1.65054,-4.085 -1.65054,-4.085 -6.35798,-3.20513 -2.58909,0.48392 -15.05744,1.09911 -27.70744,1.36708 -23,0.48721 -23,0.48721 -27.09234,8.35613 -2.25079,4.3279 -4.68282,10.72596 -5.40452,14.21792 -0.72169,3.49195 -2.30848,9.34378 -3.52621,13.00406 -2.21404,6.65506 -2.21404,6.65506 10.90452,7.26454 7.2152,0.33522 16.60122,0.86333 20.85782,1.17358 6.68026,0.4869 8.00537,0.90238 9.68394,3.03634 1.45976,1.85578 3.64431,2.7951 8.76073,3.76698 3.74883,0.7121 6.94685,1.19592 7.1067,1.07515 0.15984,-0.12077 -0.61,-1.74603 -1.71077,-3.6117 z m 3.17013,-57.51165 c 4.47435,-0.42258 6.75,-1.06776 6.75,-1.91374 0,-0.91784 1.89557,-1.25094 6.75,-1.18613 5.40353,0.0721 8.39648,-0.55985 15.00398,-3.16821 4.53969,-1.79207 8.03144,-3.6184 7.75945,-4.05849 -0.27199,-0.44009 -1.73628,-1.10939 -3.25398,-1.48733 -1.5177,-0.37795 -5.12195,-2.03583 -8.00945,-3.68417 -3.52536,-2.01248 -5.25,-3.64021 -5.25,-4.955 0,-1.07689 0.59608,-2.18673 1.32463,-2.4663 0.72854,-0.27957 5.52398,0.89861 10.65653,2.61817 8.45637,2.83314 10.46654,3.1221 21.42537,3.0798 8.83418,-0.0341 14.24954,-0.60215 20.09347,-2.10772 4.4,-1.13358 11.6,-3.84394 16,-6.02304 4.4,-2.17909 10.2278,-5.80379 12.9506,-8.05488 2.7229,-2.25109 6.258,-5.87053 7.8558,-8.04321 1.5978,-2.17268 3.499,-5.92396 4.225,-8.33618 0.9868,-3.2789 1.0717,-5.85934 0.3364,-10.22386 -0.5409,-3.2109 -1.2325,-7.55454 -1.5368,-9.65254 -0.4813,-3.31733 -0.2685,-3.88904 1.6321,-4.38605 1.7732,-0.46371 2.0684,-1.06456 1.5648,-3.18546 -0.3413,-1.43767 -1.7419,-4.94386 -3.1123,-7.79152 -1.4368,-2.98542 -4.9266,-7.43106 -8.2424,-10.5 -3.1629,-2.92734 -8.4962,-6.78493 -11.8519,-8.57243 -3.3557,-1.7875 -7.0508,-3.25 -8.2113,-3.25 -1.1605,0 -2.11,-0.39541 -2.11,-0.87868 0,-0.48327 -1.2375,-1.36778 -2.75,-1.96557 -1.5125,-0.59778 -4.0222,-1.38486 -5.577,-1.74906 -1.6853,-0.39475 -3.83192,-0.12442 -5.31508,0.66935 -2.04878,1.09647 -2.63099,1.10015 -3.29804,0.0208 -0.56318,-0.91125 -1.83853,-1.09406 -4.18496,-0.59988 -1.85621,0.39094 -6.19741,2.0418 -9.64711,3.66857 -3.44971,1.62677 -9.0559,5.27439 -12.45821,8.10582 -3.40231,2.83143 -10.15481,8.90927 -15.00555,13.50631 -5.44364,5.15893 -9.47877,8.23263 -10.54179,8.03006 -0.94724,-0.18051 -1.85706,-1.26748 -2.02183,-2.41548 -0.1801,-1.2549 1.37091,-4.24175 3.88928,-7.48979 2.30386,-2.97137 5.72719,-7.02313 7.60741,-9.0039 3.41857,-3.6014 3.41857,-3.6014 -4.56197,-4.26695 -4.3893,-0.36606 -10.60283,-1.46133 -13.80785,-2.43395 -5.06841,-1.5381 -5.86858,-2.12267 -6.14427,-4.48874 -0.20772,-1.78271 0.23287,-2.93132 1.2783,-3.33249 0.87739,-0.33669 5.07003,-0.1217 9.31697,0.47775 4.24693,0.59946 11.62237,1.59374 16.38985,2.20952 8.51591,1.09994 8.73411,1.07478 12.4236,-1.43229 2.06549,-1.40354 4.38382,-4.03229 5.15184,-5.84167 0.76803,-1.80938 3.16491,-8.4023 5.32641,-14.65094 2.1615,-6.24863 3.93,-11.76113 3.93,-12.25 0,-0.48886 -0.5625,-0.89161 -1.25,-0.895 -0.6875,-0.003 -2.56092,-0.68979 -4.16315,-1.52534 -2.44786,-1.27654 -4.20477,-1.34535 -11,-0.43083 -4.44777,0.59859 -12.81185,2.65488 -18.58685,4.56952 -5.775,1.91465 -13.82565,5.3738 -17.89034,7.687 -4.89223,2.78414 -9.54911,6.56858 -13.77676,11.19575 -5.11493,5.59831 -6.29313,7.48968 -5.91788,9.5 0.25769,1.38053 0.99121,6.44756 1.63004,11.26006 1.16152,8.75 1.16152,8.75 4.55823,8.75 3.20872,0 3.39671,0.19176 3.39671,3.46482 0,2.28387 -0.59647,3.77732 -1.75,4.38168 -0.9625,0.50428 -3.2063,1.22951 -4.98622,1.61162 -2.64851,0.56857 -3.73815,0.23189 -6,-1.85389 -1.52008,-1.40174 -7.33848,-6.16251 -12.92979,-10.57948 -5.5913,-4.41698 -12.53027,-10.84199 -15.41994,-14.27781 -2.88966,-3.43582 -7.87954,-10.28716 -11.08861,-15.2252 -3.20907,-4.93804 -8.48903,-14.38804 -11.73323,-21 -3.24421,-6.61196 -7.54248,-16.45726 -9.55171,-21.87845 -2.00923,-5.42118 -5.19103,-15.85713 -7.07067,-23.19099 -1.87964,-7.33386 -4.19849,-18.87334 -5.153,-25.64329 -0.95451,-6.76996 -2.36803,-13.32151 -3.14116,-14.55901 -1.25581,-2.0101 -2.2096,-2.25 -8.94552,-2.25 -7.45905,0 -7.57943,-0.0416 -11.23737,-3.88693 -2.03366,-2.13782 -3.98898,-5.34407 -4.34517,-7.125 -0.35618,-1.78089 -0.64761,-5.32528 -0.64761,-7.87637 0,-3.66498 0.75204,-5.75506 3.58365,-9.95976 2.6923,-3.99783 4.86865,-5.91971 8.75,-7.72688 2.84149,-1.32301 6.51635,-2.40969 8.16635,-2.41484 3,-0.009 3,-0.009 2.64736,-13.095756 -0.30595,-11.353961 -0.0751,-13.847461 1.7435,-18.835231 1.15287,-3.16186 2.75638,-9.530838 3.56335,-14.153292 0.98852,-5.662381 1.13746,-8.734223 0.45651,-9.415178 -0.57608,-0.57608 -6.25706,-0.990338 -13.21072,-0.963329 -11.69328,0.04542 -12.65035,0.21309 -23.04283,4.036949 -6.75368,2.484982 -12.59918,5.39338 -15.5,7.711943 -2.56144,2.047309 -9.15717,7.253652 -14.65717,11.569657 -5.5,4.31599 -10.92488,8.92429 -12.05528,10.24066 -1.1304,1.31637 -4.8429,6.69073 -8.25,11.943021 -3.4071,5.25229 -6.19472,9.801826 -6.19472,10.110086 0,0.30827 2.42412,0.81068 5.38693,1.11646 3.22176,0.33252 6.97294,1.5572 9.3329,3.04698 2.17029,1.37004 5.10852,3.87259 6.52941,5.56122 2.58344,3.07024 2.58344,3.07024 5.72531,-0.50815 1.72802,-1.96812 4.78935,-6.9079 6.80294,-10.97731 2.64801,-5.351536 4.19144,-7.398906 5.57772,-7.398906 1.70655,0 1.84649,0.51176 1.27669,4.66891 -0.35197,2.567886 -1.70046,6.955396 -2.99664,9.750006 -1.29619,2.7946 -4.66385,7.94404 -7.4837,11.44319 -2.81985,3.49916 -6.01254,7.79493 -7.09487,9.54618 -1.08233,1.75124 -2.25612,4.9867 -2.60843,7.1899 -0.41941,2.62287 -0.12292,5.24471 0.85882,7.59433 1.0933,2.61664 2.43447,3.89712 4.9521,4.72801 2.40722,0.79446 4.26114,0.83215 6.1224,0.1245 1.46832,-0.55825 2.96123,-1.7748 3.31759,-2.70345 0.44665,-1.16396 -0.36663,-2.53542 -2.61819,-4.41511 -2.02384,-1.68957 -3.1327,-3.43027 -2.91535,-4.57656 0.23857,-1.25828 1.38218,-1.94972 3.5759,-2.16202 2.38094,-0.23041 3.88391,0.34665 5.74181,2.20455 1.98,1.98 2.51666,3.52607 2.51666,7.25024 0,3.2402 -0.69542,5.74847 -2.20429,7.95052 -1.21236,1.76932 -3.41929,3.93467 -4.90429,4.81188 -1.485,0.87721 -4.60628,1.59493 -6.93618,1.59493 -2.34826,0 -6.17707,-0.96933 -8.59123,-2.17502 -3.11527,-1.55584 -4.92567,-3.35377 -6.35953,-6.31572 -1.10246,-2.27739 -2.00448,-5.12363 -2.00448,-6.32498 0,-1.20136 -0.36,-2.18428 -0.8,-2.18428 -0.44,0 -1.2275,0.39721 -1.75,0.88268 -0.5225,0.48547 -3.82259,1.59557 -7.33353,2.46687 -3.51095,0.8713 -6.65332,1.85396 -6.98304,2.18369 -0.32973,0.32972 -1.18504,2.48213 -1.90069,4.78313 -0.71565,2.301 -1.58106,8.41577 -1.92312,13.5884 -0.62194,9.40476 -0.62194,9.40476 15.28422,8.82756 9.86053,-0.35781 20.08705,-1.39037 26.90616,-2.71668 6.05,-1.17671 16.20361,-3.23662 22.56358,-4.57757 6.35997,-1.34094 12.45747,-2.43808 13.55,-2.43808 1.09253,0 2.52642,0.54 3.18642,1.2 0.66,0.66 1.2,2.4049 1.2,3.87756 0,1.47265 -0.56377,3.14543 -1.25281,3.71729 -0.68905,0.57186 -7.10155,2.21496 -14.25,3.65133 -7.14846,1.43637 -17.49719,3.52823 -22.99719,4.64859 -6.3993,1.30354 -16.02431,2.24797 -26.73096,2.6229 -16.32649,0.57174 -16.72011,0.63663 -16.28234,2.68412 0.24674,1.15402 1.3656,8.39821 2.48635,16.09821 1.12076,7.7 2.53486,17.36695 3.14247,21.4821 0.6076,4.11516 1.9847,10.86516 3.06023,15 1.07552,4.13485 5.62183,16.7429 10.10291,28.0179 7.64628,19.23905 8.87465,21.58838 19.97042,38.19443 8.46901,12.67481 13.7117,19.42509 18.48078,23.79508 3.66177,3.35535 14.55806,11.50249 24.21396,18.10475 14.20779,9.71463 20.5124,13.30821 33.05618,18.84175 9.81614,4.33028 18.43361,7.41291 23.5,8.40639 4.4,0.86282 9.125,1.75246 10.5,1.97699 1.375,0.22454 11.275,0.46633 22,0.53732 10.725,0.071 22.5375,-0.1578 26.25,-0.50842 z m 50.5,-25.42839 c -1.09866,-0.63991 -1.75,-2.22902 -1.75,-4.26959 0,-1.78767 0.54,-3.79031 1.2,-4.45031 0.66,-0.66 2.37,-1.2 3.8,-1.2 1.43,0 3.14,0.54 3.8,1.2 0.66,0.66 1.2,2.42786 1.2,3.92857 0,1.50072 -0.70714,3.43572 -1.57143,4.3 -0.86428,0.86429 -2.32678,1.55775 -3.25,1.54102 -0.92321,-0.0167 -2.46607,-0.48908 -3.42857,-1.04969 z M 217.57962,337.66194 c -1.96649,-1.96649 -3.1176,-2.31591 -6.24674,-1.89621 -3.41294,0.45778 -3.96923,0.22216 -5.04382,-2.13633 -0.6643,-1.45796 -1.20781,-4.44091 -1.20781,-6.62876 0,-2.57352 1.26544,-6.49074 3.58436,-11.0955 3.58436,-7.11759 3.58436,-7.11759 2.26351,-27.22503 -0.72646,-11.0591 -1.32692,-22.80745 -1.33436,-26.10745 -0.0119,-5.29215 0.21716,-6 1.94173,-6 1.43049,0 2.14884,0.93934 2.6766,3.5 0.39676,1.925 1.4294,11.98053 2.29477,22.34563 0.86536,10.3651 1.57339,21.18245 1.57339,24.03856 0,2.98788 -0.74935,6.66274 -1.76474,8.65437 -1.72638,3.38618 -1.72094,3.46251 0.25,3.5106 1.10811,0.027 2.9234,0.3619 4.03398,0.74414 2.00215,0.68911 2.01601,0.43619 1.63681,-29.88596 -0.2715,-21.70978 -0.0574,-30.90595 0.7379,-31.70129 0.82711,-0.82711 1.57649,-0.6646 2.86319,0.62093 1.54521,1.5438 1.79956,4.82633 2.24286,28.94549 0.5,27.20422 0.5,27.20422 3.33269,28.56008 1.55798,0.74571 4.61009,4.10583 6.78247,7.46692 2.17238,3.36109 4.22643,7.21335 4.56456,8.56058 0.33813,1.34723 0.16493,3.16735 -0.3849,4.04473 -0.61041,0.97404 -2.71209,1.70969 -5.39725,1.8892 -2.59151,0.17324 -5.16799,-0.26976 -6.27347,-1.07865 -1.64805,-1.2059 -2.15875,-1.08977 -4.20455,0.95603 -1.28075,1.28075 -3.26955,2.32864 -4.41955,2.32864 -1.15,0 -3.17573,-1.08482 -4.50163,-2.41072 z m 5.50163,-6.02418 c 0,-1.3392 -0.50364,-3.7017 -1.1192,-5.25 -1.11919,-2.8151 -1.11919,-2.8151 -2.11594,0.0327 -0.68422,1.95489 -0.65356,3.60102 0.0978,5.25 0.60194,1.32122 1.55411,2.4022 2.1159,2.4022 0.56179,0 1.02144,-1.09571 1.02144,-2.4349 z m 11.98788,-1.86107 c -1.06957,-1.81278 -3.3496,-4.33468 -5.06674,-5.60421 -3.12207,-2.30825 -3.12207,-2.30825 -2.44436,0.046 0.37274,1.29481 2.21134,3.81671 4.08578,5.60421 1.87444,1.7875 3.8495,3.25 4.38903,3.25 0.53953,0 0.10586,-1.48319 -0.96371,-3.29597 z m -22.00319,-4.51305 c -0.012,-2.10476 -0.22649,-2.36421 -0.98469,-1.19098 -0.53316,0.825 -0.97627,2.31406 -0.98469,3.30902 -0.008,0.99496 0.43469,1.5309 0.98469,1.19098 0.55,-0.33992 0.99311,-1.82898 0.98469,-3.30902 z m 123.01531,4.08013 c -0.825,-0.31405 -1.83061,-1.06602 -2.23469,-1.67105 -0.40408,-0.60503 -0.74158,-2.05746 -0.75,-3.22762 -0.008,-1.17015 0.54971,-2.59647 1.24028,-3.1696 0.69058,-0.57313 2.42589,-1.33578 3.85625,-1.69477 1.77018,-0.44429 3.12555,-0.12782 4.2444,0.99103 0.90407,0.90407 1.64376,2.94578 1.64376,4.53714 0,1.83716 -0.7061,3.27129 -1.93426,3.92858 -1.06384,0.56935 -2.52634,0.99965 -3.25,0.95623 -0.72366,-0.0434 -1.99074,-0.33589 -2.81574,-0.64994 z m 2.53748,-27.87648 c -1.02992,-1.02993 -1.36566,-2.37412 -0.93664,-3.75 0.3678,-1.17955 1.17057,-2.47524 1.78394,-2.87932 0.61337,-0.40408 1.9323,-0.74158 2.93096,-0.75 0.99866,-0.008 2.68616,0.45052 3.75,1.01987 1.06384,0.56935 1.93426,1.88255 1.93426,2.91822 0,1.03566 -0.27314,2.59483 -0.60699,3.46481 -0.38492,1.00308 -1.82221,1.58179 -3.92857,1.58179 -1.82687,0 -4.044,-0.72242 -4.92696,-1.60537 z M 292.93388,289.4031 c -0.90606,-0.24066 -1.89546,-1.38621 -2.19866,-2.54567 -0.30321,-1.15947 -0.0941,-2.96233 0.46463,-4.00638 0.68115,-1.27274 1.8667,-1.79612 3.5978,-1.58832 1.42003,0.17046 3.03103,1.02778 3.57999,1.90515 0.54897,0.87738 0.69828,2.78988 0.33181,4.25 -0.41916,1.67006 -1.30835,2.61175 -2.39725,2.53878 -0.95202,-0.0638 -2.47227,-0.3129 -3.37832,-0.55356 z m -5.80695,-10.7754 c -0.65956,-0.79472 -1.05216,-2.43627 -0.87244,-3.64787 0.17972,-1.2116 1.11426,-2.69657 2.07676,-3.29993 1.26884,-0.79539 2.23116,-0.79574 3.5,-10e-4 0.9625,0.60266 1.89853,2.35153 2.08008,3.88638 0.18454,1.56026 -0.25635,3.16239 -1,3.63382 -0.73155,0.46376 -2.06248,0.85009 -2.95764,0.85851 -0.89515,0.008 -2.16719,-0.63492 -2.82676,-1.42965 z m -17.04539,-11.05269 c -0.59762,-4.80926 -0.78206,-10.77482 -0.40986,-13.2568 0.67672,-4.5127 0.67672,-4.5127 -4.20686,-3.82216 -2.68596,0.37979 -5.67107,0.92022 -6.63357,1.20096 -1.42913,0.41684 -1.75,1.67364 -1.75,6.85445 0,6.34402 0,6.34402 6.65613,12.44315 3.66087,3.35452 6.83041,5.92484 7.04343,5.71182 0.21303,-0.21302 -0.10165,-4.32216 -0.69927,-9.13142 z m 89.58179,-19.4011 c 2.58835,-5.83069 9.30162,-20.10119 14.91852,-31.71224 10.2124,-21.11098 10.2124,-21.11098 6.0757,-20.64472 -2.5334,0.28555 -5.6256,-0.15588 -7.9786,-1.13902 -2.1131,-0.8829 -4.012,-1.60527 -4.2198,-1.60527 -0.2079,0 -0.37904,1.0125 -0.38042,2.25 -0.001,1.2375 -1.13754,6.525 -2.52478,11.75 -1.38725,5.225 -3.68141,13.1 -5.09814,17.5 -1.41673,4.4 -4.78057,14.11765 -7.47521,21.59478 -2.69464,7.47713 -4.89935,13.84751 -4.89935,14.1564 0,0.30889 1.5471,0.0868 3.438,-0.49353 3.14243,-0.96444 3.84259,-1.96656 8.14408,-11.6564 z m 26.73242,7.14875 c 1.9166,-2.6125 9.6148,-13.75 17.107,-24.75 13.6223,-20 13.6223,-20 8.8504,-20.53796 -2.6245,-0.29588 -5.8229,-1.11984 -7.1075,-1.83102 -1.2847,-0.71118 -2.432,-1.1441 -2.5498,-0.96204 -0.1177,0.18206 -2.6157,6.63102 -5.5509,14.33102 -2.9353,7.7 -6.9046,17.15 -8.8208,21 -1.9161,3.85 -5.0133,9.09711 -6.8826,11.66024 -2.3698,3.24923 -3.0146,4.8149 -2.1296,5.17105 0.6981,0.28095 1.7935,0.54634 2.4341,0.58976 0.6407,0.0434 2.733,-2.05855 4.6497,-4.67105 z m 9.6855,2.13197 c 0,-0.275 -0.45,-0.22189 -1,0.11803 -0.55,0.33992 -1,0.84303 -1,1.11803 0,0.275 0.45,0.22189 1,-0.11803 0.55,-0.33992 1,-0.84303 1,-1.11803 z m -20,-1 c 0,-0.275 -0.45,-0.22189 -1,0.11803 -0.55,0.33992 -1,0.84303 -1,1.11803 0,0.275 0.45,0.22189 1,-0.11803 0.55,-0.33992 1,-0.84303 1,-1.11803 z m -6.0149,-5.63197 c 2.4589,-5.37012 2.6647,-6.45279 1.4621,-7.69048 -0.7698,-0.79226 -1.5825,-1.24226 -1.8062,-1 -0.2236,0.24227 -2.03996,3.70298 -4.03635,7.69048 -3.62979,7.25 -3.62979,7.25 -1.05555,7.25 2.18582,0 3.00605,-0.94305 5.436,-6.25 z m 33.0149,-0.62418 c 0,-0.275 -1.35,0.79338 -3,2.37418 -1.65,1.5808 -3,3.09918 -3,3.37418 0,0.275 1.35,-0.79338 3,-2.37418 1.65,-1.5808 3,-3.09918 3,-3.37418 z m -154.73209,-8.94051 c -1.22765,-0.17309 -3.58412,-0.17309 -5.23661,0 -3.00452,0.31469 -3.00452,0.31469 1.16427,6.81469 4.16879,6.5 4.16879,6.5 5.23661,0 1.04113,-6.33751 1.01202,-6.50787 -1.16427,-6.81469 z m 177.09149,-22.18531 c 7.7908,-9.075 14.7554,-17.2612 15.4768,-18.19155 1.1696,-1.50831 0.8433,-1.80869 -3.0123,-2.77299 -2.3781,-0.59479 -5.0646,-1.4957 -5.97,-2.00202 -1.1703,-0.65454 -2.1096,-0.40839 -3.25,0.85173 -0.8821,0.97477 -1.6039,2.70743 -1.6039,3.85035 0,1.14293 -1.2827,4.93685 -2.8503,8.43094 -1.5677,3.49408 -7.6682,13.54853 -13.5566,22.34321 -10.1717,15.19198 -10.4239,15.69077 -5.0526,9.99033 3.1095,-3.3 12.028,-13.425 19.8189,-22.5 z m -165.3594,20.89301 c 0,-1.59115 -0.3375,-2.8787 -0.75,-2.86121 -0.4125,0.0175 -1.57307,0.65561 -2.57905,1.41805 -1.47246,1.11598 -1.6157,1.78487 -0.73474,3.43095 0.65085,1.21614 1.69596,1.81384 2.57904,1.47497 0.83956,-0.32216 1.48475,-1.82689 1.48475,-3.46276 z m 6.68933,-2.64301 c -0.25153,-0.9625 -0.45733,-0.175 -0.45733,1.75 0,1.925 0.2058,2.7125 0.45733,1.75 0.25152,-0.9625 0.25152,-2.5375 0,-3.5 z m 116.86017,-20.3814 c 3.5616,-9.44725 6.286,-17.36638 6.0544,-17.59807 -0.2317,-0.23169 -0.7398,0.58214 -1.129,1.80851 -0.3892,1.22636 -3.9971,9.24164 -8.0176,17.81173 -5.5518,11.83438 -7.045,15.90109 -6.2087,16.9088 0.9055,1.09109 1.2543,1.05313 1.9633,-0.21367 0.4741,-0.84727 3.7761,-9.27005 7.3376,-18.7173 z m -128.78533,13.88207 c 5.36137,-3.24933 5.36137,-3.24933 4.86372,-12.25 -0.2737,-4.95037 -0.78886,-11.03262 -1.1448,-13.51613 -0.56903,-3.97023 -0.3299,-4.85779 1.98044,-7.35069 2.20572,-2.38001 3.26252,-2.77468 6.58204,-2.45811 2.17494,0.20741 3.95406,0.14022 3.95362,-0.14931 -4.5e-4,-0.28954 -0.84287,-2.77643 -1.87204,-5.52643 -1.37233,-3.66691 -3.17178,-6.01322 -6.74919,-8.80029 -2.68288,-2.09015 -6.77038,-4.93365 -9.08334,-6.31887 -4.20539,-2.51859 -4.20539,-2.51859 -13,-0.87772 -4.83704,0.90247 -10.59462,2.43729 -12.79462,3.41071 -2.2,0.97341 -5.4625,3.00602 -7.25,4.5169 -1.7875,1.51088 -3.25569,3.26956 -3.26265,3.90816 -0.007,0.63861 1.19396,5.11484 2.66869,9.94718 1.72367,5.64802 2.97278,8.32674 3.49734,7.5 0.44879,-0.70734 0.82289,-2.43938 0.83131,-3.84898 0.009,-1.47892 1.18442,-3.68299 2.77948,-5.21115 1.5203,-1.45654 4.72687,-3.34073 7.12573,-4.18709 2.39885,-0.84637 5.76748,-1.51724 7.48583,-1.49082 1.71835,0.0264 4.69927,0.81392 6.62427,1.75 2.0374,0.99074 4.23065,3.16457 5.24845,5.20197 1.0594,2.12069 1.74905,5.78171 1.75,9.28984 0.001,3.79689 -0.67909,7.124 -1.97581,9.66578 -1.08755,2.13177 -3.29452,4.81385 -4.90437,5.96017 -2.20496,1.57006 -4.44694,2.08421 -9.08838,2.08421 -3.38876,0 -7.05162,-0.47644 -8.13969,-1.05876 -1.73649,-0.92935 -1.61663,-0.34226 0.98061,4.80283 2.54312,5.0379 3.49786,6.01208 6.79406,6.9324 2.10932,0.58894 5.38826,1.12766 7.28653,1.19716 2.29252,0.0839 5.25159,-0.96466 8.81277,-3.12296 z m 137.84043,-15.92987 c 3.0202,-7.74658 5.3572,-14.78061 5.1933,-15.63118 -0.1638,-0.85057 -3.2229,6.28568 -6.7979,15.85834 -3.575,9.57266 -6.6335,17.86546 -6.7966,18.42844 -0.1632,0.56298 0.4248,-0.23517 1.3067,-1.77366 0.8818,-1.53849 4.0743,-9.13537 7.0945,-16.88194 z m -119.93793,4.51253 c -0.36667,-0.36666 -0.66667,-0.0667 -0.66667,0.66667 0,0.73333 0.3,1.03333 0.66667,0.66667 0.36666,-0.36667 0.36666,-0.96667 0,-1.33334 z m -36.66667,-3.83333 c 0,-0.275 -0.9,-1.4 -2,-2.5 -1.1,-1.1 -2.52844,-2 -3.17431,-2 -0.64588,0 -0.11744,1.125 1.17431,2.5 1.29175,1.375 2.72019,2.5 3.17431,2.5 0.45413,0 0.82569,-0.225 0.82569,-0.5 z m 46.35517,-0.26566 c 0.26026,-0.42112 0.96405,-4.29466 1.56396,-8.60789 0.80979,-5.82219 0.78941,-9.47767 -0.0791,-14.19141 -0.64344,-3.49206 -1.54566,-6.11695 -2.00494,-5.8331 -0.45931,0.28385 -0.83509,1.81298 -0.83509,3.39806 0,1.58508 -0.38336,3.11889 -0.8519,3.40847 -0.46855,0.28958 -0.63672,3.87941 -0.37373,7.97742 0.26299,4.098 0.004,8.81103 -0.57547,10.47339 -0.77814,2.23218 -0.74579,3.14803 0.12373,3.50265 0.64755,0.2641 1.48831,0.5157 1.86835,0.55912 0.38004,0.0434 0.90393,-0.2656 1.16419,-0.68671 z m -33.35517,-2.85237 c 0,-0.275 -0.45,-0.22189 -1,0.11803 -0.55,0.33992 -1,0.84303 -1,1.11803 0,0.275 0.45,0.22189 1,-0.11803 0.55,-0.33992 1,-0.84303 1,-1.11803 z m 187,0 c 0,-0.275 -0.45,-0.22189 -1,0.11803 -0.55,0.33992 -1,0.84303 -1,1.11803 0,0.275 0.45,0.22189 1,-0.11803 0.55,-0.33992 1,-0.84303 1,-1.11803 z m -191.28292,-4.57737 c 0.62617,-0.77609 0.7213,-2.17795 0.23482,-3.46041 -0.50102,-1.32079 -2.07428,-2.4318 -4.06174,-2.86831 -2.50033,-0.54917 -3.53745,-0.31114 -4.52421,1.03834 -1.04838,1.43374 -1.02015,2.25379 0.15586,4.52796 0.78986,1.52742 2.00808,2.98198 2.70715,3.23235 0.69907,0.25037 1.98305,0.0906 2.85328,-0.35506 0.87024,-0.44565 2.05591,-1.39735 2.63484,-2.11487 z m 27.28292,-0.42263 c 0,-0.275 -0.45,-0.22189 -1,0.11803 -0.55,0.33992 -1,0.84303 -1,1.11803 0,0.275 0.45,0.22189 1,-0.11803 0.55,-0.33992 1,-0.84303 1,-1.11803 z m -10.21224,-4.51868 c -0.24965,-0.74895 -0.70294,-0.29565 -1.05655,1.05655 -0.43497,1.66335 -0.30483,2.05378 0.43724,1.31171 0.5811,-0.5811 0.85979,-1.64682 0.61931,-2.36826 z m 6.39974,-2.5464 c -0.72187,-0.28887 -1.58438,-0.25335 -1.91667,0.0789 -0.33229,0.33229 0.25834,0.56864 1.3125,0.52522 1.16495,-0.048 1.4019,-0.28494 0.60417,-0.60416 z m -33.1875,-4.53089 c 0,-0.49722 -0.44758,-0.62741 -0.99462,-0.28932 -0.54704,0.33809 -1.51252,1.60214 -2.14551,2.80901 -1.1429,2.17907 -1.13599,2.18108 0.99462,0.28932 1.18003,-1.04774 2.14551,-2.3118 2.14551,-2.80901 z m 184,2.214 c 0,-1.1 -0.6382,-2 -1.4182,-2 -0.78,0 -2.13,-0.27314 -3,-0.60699 -1.0251,-0.39336 -1.5818,-0.0589 -1.5818,0.95031 0,0.85652 0.7875,2.01598 1.75,2.57658 0.9625,0.56061 2.3125,1.03297 3,1.04969 0.6875,0.0167 1.25,-0.86959 1.25,-1.96959 z m -171.24242,-1.69697 c -1.48334,-1.48333 -3.04139,-2.35256 -3.46234,-1.93161 -0.42095,0.42095 0.35292,1.62458 1.7197,2.67474 1.36678,1.05015 2.92483,1.91937 3.46233,1.9316 0.5375,0.0122 -0.23636,-1.1914 -1.71969,-2.67473 z m 154.17172,-8.5302 c 0.6188,-1.77495 0.7134,-2.78745 0.2103,-2.25 -0.5032,0.53744 -1.2207,1.98967 -1.5946,3.22717 -0.3739,1.2375 -0.4685,2.25 -0.2102,2.25 0.2582,0 0.9758,-1.45223 1.5945,-3.22717 z m 42.5183,0.78752 c -0.9268,-1.41445 -2.1972,-2.20994 -3.0231,-1.89302 -0.7835,0.30066 -1.4245,0.92614 -1.4245,1.38997 0,0.46383 0.7875,1.302 1.75,1.8626 0.9625,0.56061 2.3229,1.03297 3.0231,1.04969 0.9382,0.0224 0.8526,-0.61125 -0.3255,-2.40924 z m -35.7809,-2.22702 c -0.3667,-0.36666 -0.9667,-0.36666 -1.3334,0 -0.3666,0.36667 -0.0666,0.66667 0.6667,0.66667 0.7333,0 1.0333,-0.3 0.6667,-0.66667 z m -21.6667,-2.08864 c 0,-0.41542 -1.555,-1.24202 -3.4556,-1.83689 -2.6436,-0.82744 -3.5673,-0.79042 -3.9311,0.15754 -0.2615,0.68152 -0.2065,1.50812 0.1223,1.83689 0.3287,0.32878 2.0977,0.59777 3.9311,0.59777 1.8333,0 3.3333,-0.33989 3.3333,-0.75531 z m 24.2705,-9.37422 c -0.6029,-0.60291 -1.6681,-0.74279 -2.367,-0.31084 -0.9387,0.58015 -0.7655,0.96881 0.6629,1.48735 1.0635,0.38608 2.1286,0.52595 2.3669,0.31083 0.2384,-0.21513 -0.06,-0.88443 -0.6628,-1.48734 z m -187.18264,-5.87605 c 0.77668,-0.003 3.09964,-0.47422 5.16214,-1.047 2.69775,-0.7492 3.75,-1.58944 3.75,-2.99442 0,-1.40328 -0.68623,-1.953 -2.43795,-1.953 -1.34087,0 -5.4531,0.69926 -9.1383,1.55392 -3.6852,0.85465 -7.36423,1.29916 -8.17563,0.9878 -1.20947,-0.46412 -1.34837,0.11036 -0.77092,3.18846 0.38741,2.06503 0.91662,4.09802 1.17604,4.51776 0.25941,0.41974 2.39559,-0.36433 4.74707,-1.74238 2.35147,-1.37806 4.91087,-2.50807 5.68755,-2.51114 z m 190.41214,4.00558 c -0.3399,-0.55 -0.843,-1 -1.118,-1 -0.275,0 -0.2219,0.45 0.118,1 0.3399,0.55 0.843,1 1.118,1 0.275,0 0.2219,-0.45 -0.118,-1 z m -167.25,-7.98635 c 2.65951,-0.0132 2.75,-0.1917 2.75,-5.42483 0,-5.41118 0,-5.41118 -5.88263,-5.75 -5.78948,-0.33345 -5.86866,-0.30216 -5,1.97628 0.48545,1.2733 0.88263,4.13829 0.88263,6.36663 0,3.71358 0.18768,4.00124 2.25,3.44856 1.2375,-0.33164 3.4875,-0.60913 5,-0.61664 z m -29.25,-6.51365 c 2.3383,-0.825 5.46988,-1.5 6.95906,-1.5 1.48918,0 2.94246,-0.23485 3.2295,-0.52189 0.28704,-0.28704 0.0687,-2.21976 -0.48519,-4.29493 -1.00708,-3.77303 -1.00708,-3.77303 -6.10522,-2.01075 -2.80398,0.96925 -6.79422,1.77697 -8.8672,1.79492 -3.58593,0.0311 -3.73978,0.16627 -3.16648,2.78265 0.33142,1.5125 0.77587,3.3125 0.98767,4 0.2118,0.6875 1.01764,1.25 1.79075,1.25 0.77311,0 3.31881,-0.675 5.65711,-1.5 z m 25.96949,-10.36934 c 5.4695,-0.63066 5.4695,-0.63066 1,-4.06602 -2.45822,-1.88945 -4.91949,-3.76334 -5.46949,-4.1642 -0.55,-0.40086 -2.23158,0.33088 -3.73685,1.62609 -2.2715,1.95451 -2.63011,2.88867 -2.10905,5.49397 0.53015,2.65075 0.95588,3.03029 2.73685,2.43993 1.15998,-0.38451 4.57032,-0.9829 7.57854,-1.32977 z m -23.45046,-6.57381 c 2.76047,-1.2291 7.8436,-4.84977 11.29584,-8.04594 3.45225,-3.19617 7.49369,-7.88115 8.98097,-10.41107 2.18511,-3.71693 2.6904,-5.7835 2.63245,-10.76654 -0.0559,-4.80862 -0.76974,-7.5846 -3.24128,-12.605006 -1.83346,-3.72427 -5.1969,-8.33463 -7.97887,-10.936841 -2.85165,-2.66739 -7.23104,-5.42715 -10.75872,-6.77984 -3.76926,-1.44532 -8.33134,-2.3235 -12.44942,-2.39646 -6.29434,-0.11152 -6.50957,-0.0327 -6.80256,2.49119 -0.2898,2.49644 -0.0553,2.62877 5.56257,3.13817 3.36708,0.30532 8.00641,1.6169 10.89258,3.07943 2.7651,1.40119 6.5144,4.241141 8.33177,6.311021 1.81738,2.06988 4.10722,5.586276 5.08853,7.814216 0.98131,2.22795 2.08742,6.75668 2.45801,10.06384 0.4002,3.57137 0.21551,7.71504 -0.45485,10.20453 -0.62076,2.30533 -2.33593,5.62628 -3.81149,7.37988 -1.47555,1.7536 -4.95122,4.24467 -7.72369,5.5357 -2.77248,1.29103 -6.84087,2.35862 -9.04087,2.37241 -2.2,0.0138 -4.5886,0.39838 -5.30799,0.85463 -0.85433,0.54183 -1.07478,1.75872 -0.63561,3.50854 0.61602,2.45441 0.97717,2.62634 4.30799,2.05093 1.99959,-0.34544 5.89417,-1.6337 8.65464,-2.86279 z m -99.68976,-8.72176 c 1.71706,-1.4657 3.90572,-4.30853 4.86369,-6.31741 1.57195,-3.29641 1.59503,-3.91402 0.23675,-6.33509 -0.82775,-1.47542 -3.28806,-3.66603 -5.46736,-4.868 -3.96235,-2.18542 -3.96235,-2.18542 -3.96235,6.5 0,7.13041 -0.41222,9.46984 -2.30244,13.06682 -2.30244,4.3814 -2.30244,4.3814 0.60366,2.5 1.59836,-1.03478 4.31098,-3.08062 6.02805,-4.54632 z m 133.41887,-3.08509 c 1.93183,-5.0875 3.81009,-10.22621 4.17392,-11.41935 0.48468,-1.58943 0.18253,-2.30336 -1.13027,-2.67065 -0.98548,-0.27572 -2.7448,-0.77345 -3.90959,-1.10608 -1.89595,-0.54142 -2.18524,-0.0963 -2.76165,4.24883 -0.37293,2.81134 -2.07168,7.22475 -4.03722,10.48884 -3.39337,5.63525 -3.39337,5.63525 -0.23835,7.58899 1.73526,1.07455 3.43306,1.99101 3.77289,2.03657 0.33983,0.0456 2.19845,-4.07965 4.13027,-9.16715 z m -51.43401,3.75295 c 1.63216,-1.37338 3.26037,-3.66366 3.61824,-5.08952 0.44437,-1.77052 0.009,-3.59452 -1.374,-5.75295 -2.02468,-3.16048 -2.02468,-3.16048 -2.04152,0.42004 -0.009,1.96929 -1.08065,5.68179 -2.38084,8.25 -1.3002,2.56821 -2.00972,4.66948 -1.57673,4.66948 0.433,0 2.12268,-1.12367 3.75485,-2.49705 z m 17.71789,-4.96885 c 2.45456,-1.43846 4.88693,-3.8972 5.83785,-5.90112 0.89657,-1.88938 1.62762,-4.71723 1.62455,-6.28411 -0.003,-1.56688 -0.44744,-4.4394 -0.9875,-6.38339 -0.54007,-1.94399 -2.25775,-5.544 -3.81707,-8.00001 -1.83685,-2.893126 -4.59015,-5.418746 -7.81937,-7.172776 -2.74133,-1.48902 -6.89547,-3.01292 -9.23142,-3.38645 -4.24719,-0.67916 -4.24719,-0.67916 -3.56501,7.2073 0.68089,7.871446 0.692,7.895966 5.83566,12.886456 2.83441,2.75 5.92676,6.64301 6.87188,8.65113 0.94513,2.00812 1.71841,4.4002 1.71841,5.31574 0,0.91554 -0.46583,2.53503 -1.03518,3.59887 -0.56935,1.06384 -0.72139,1.93426 -0.33786,1.93426 0.38353,0 2.5908,-1.10965 4.90506,-2.4659 z m 10.74388,-59.920728 c 0.12326,-0.487644 -1.1259,-1.304795 -2.7759,-1.815891 -1.65,-0.511097 -5.925,-1.070622 -9.5,-1.243391 -3.575,-0.172769 -7.65525,-0.621257 -9.06721,-0.996641 -2.38343,-0.633653 -2.63981,-0.365277 -3.58122,3.748692 -1.01401,4.431202 -1.01401,4.431202 6.56721,4.977282 4.16967,0.30035 9.38122,1.15074 11.58122,1.88976 4,1.34368 4,1.34368 5.2759,-2.16475 0.70175,-1.92964 1.37675,-3.907417 1.5,-4.395061 z"
       inkscape:connector-curvature="0"
       sodipodi:nodetypes="cccscssscsssssssscccsscsscssssssssssssscscsssscssssssssssssssccssssssssssssssscssssssssssssssssssssscsssssssscssccsssscssssssssssscsssssssssssssssssssssccccsccssssssssssssscsssssssssssscsscscsssssssssssssssssssssssssscssssssssssscsssssssssssssscscccscccsssscscssssscsssssssssssscsssssssssssssssssssssssssscssssssssssssssssssssssssssscsssssssssssscsssssssssssssssssssssssssssssssscssssssssssssscsscsssssssssssssscsscsssscccscscsscssssscsssscssssssscssssscsscsscccsssssscsssssscsssssscssccccccccsssssssssssscsssssssssssssscsccscsssscssssssssscssscsssssscsssssscsscsscssssssssscsscsccscsccssssssssscssscscssssssssssscsssssccssssssssscccccsssssssssscsssscsccsscscssssccscssccsscsscccsssssscscssssssssssssssssscsssssssssssssssssssssssssssssssssssssssssssssssscsssccssssscssssssssssscsssssssc" />
    <path
       style="fill:#000000"
       d="m 416.34474,162.99173 c -0.359,-0.825 -1.04777,-1.40893 -1.31237,-4.57143 -0.2647,-3.1625 -0.8771,-5.75 -1.361,-5.75 -0.4839,0 -0.9063,-1.4625 -0.9386,-3.25 -0.0265,-1.46538 -0.47219,-2.67715 2.47721,-8.40237 3.99686,-6.19044 5.59662,-6.49641 6.56202,-7.29474 1.0813,-0.89412 3.98727,-3.19619 7.00337,-4.89747 5.4837,-3.09322 5.4837,-3.09322 5.508,-12.87432 0.022,-8.8613 0.2929,-10.26712 2.8807,-14.94939 1.571,-2.842541 5.2799,-7.710711 8.2419,-10.818151 4.8907,-5.130721 5.3856,-6.066311 5.3856,-10.181731 0,-3.78152 0.5381,-5.06831 3.25,-7.77204 1.7875,-1.78211 5.8544,-4.21211 9.0375,-5.4 3.1831,-1.18789 8.0502,-2.1598 10.8158,-2.1598 2.7655,0 5.8986,0.46584 6.9624,1.03519 1.0639,0.56935 1.9343,1.89279 1.9343,2.94098 0,1.04819 -0.483,2.20434 -1.0734,2.56922 -0.6706,0.41443 -0.2884,1.21334 1.0184,2.12863 1.1505,0.80586 3.2086,3.66892 4.5734,6.36235 1.5092,2.97827 2.4816,6.59854 2.4816,9.239261 0,2.38816 -0.6607,5.21562 -1.4682,6.28324 -1.0865,1.43651 -1.4793,4.930711 -1.511,13.441141 -0.024,6.325 -0.3213,13.18453 -0.6616,15.24341 -0.3403,2.05887 -1.6533,4.77797 -2.9178,6.04243 -2.1605,2.16052 -2.245,2.71819 -1.4029,9.25659 0.4928,3.82667 0.8998,10.55757 0.9043,14.95757 0,4.4 -0.4562,10.01598 -1.024,12.47995 -0.5677,2.46398 -2.1191,5.90496 -3.4475,7.64662 -1.3285,1.74167 -4.7663,4.33819 -7.6397,5.77005 -2.8734,1.43186 -5.9878,2.60338 -6.921,2.60338 -0.9331,0 -1.9775,-0.73204 -2.3209,-1.62675 -0.3433,-0.89471 -0.1113,-2.24471 0.5155,-3 0.9192,-1.10757 0.584,-1.39466 -1.7328,-1.48394 -1.5798,-0.0609 -3.8866,-0.0285 -5.1261,0.0721 -1.3304,0.10787 -2.5237,-0.52061 -2.9125,-1.53391 -0.4185,-1.09051 0.017,-2.21105 1.1948,-3.07206 1.2066,-0.88225 4.7452,-1.35539 10.1368,-1.35539 8.2832,0 8.2832,0 10.0589,-3.25 1.4924,-2.7314 1.7594,-5.6357 1.6734,-18.20078 -0.07,-10.27932 -0.461,-15.0703 -1.25,-15.33333 -0.6312,-0.21041 -1.1477,-1.17006 -1.1477,-2.13256 0,-0.9625 0.3067,-2.05671 0.6816,-2.43158 0.3748,-0.37487 0.5656,-3.18566 0.4238,-6.2462 -0.2449,-5.28653 -0.1436,-5.54815 2.0274,-5.23508 1.4154,0.2041 2.5675,1.28107 3.0269,2.82953 0.4079,1.375 0.6609,-4.925 0.5621,-14 -0.1781,-16.365011 -0.1613,-16.502621 2.0493,-16.819561 1.2259,-0.17575 2.2289,-0.68158 2.2289,-1.12405 0,-0.442471 -1.1299,-2.826081 -2.5109,-5.296911 -1.9202,-3.4356 -3.9347,-5.25131 -8.5634,-7.71843 -4.0892,-2.17948 -6.8181,-3.0339 -8.4121,-2.63382 -1.2977,0.3257 -3.7441,1.75731 -5.4365,3.18136 -1.6924,1.42405 -3.0771,3.40595 -3.0771,4.40422 0,1.73512 0.2267,1.72891 5.1479,-0.14101 3.3793,-1.28403 5.4862,-1.61767 6.1328,-0.97114 0.5417,0.54169 0.7306,1.64751 0.4198,2.45736 -0.3107,0.80986 -3.408,2.97566 -6.8828,4.8129 -3.4747,1.837231 -8.5155,5.592361 -11.2017,8.344741 -2.6862,2.75238 -5.9443,7.254321 -7.2402,10.004341 -1.6065,3.40903 -2.3594,6.81083 -2.366,10.69098 -0.01,3.13004 0.4219,5.95779 0.9495,6.28388 0.5277,0.32609 1.818,0.0566 2.8676,-0.5988 1.0495,-0.65544 2.6428,-0.90981 3.5406,-0.56527 0.8979,0.34454 1.6325,1.29395 1.6325,2.10978 0,0.81584 -2.0887,2.92044 -4.6416,4.67689 -2.553,1.75644 -7.331,4.58051 -10.6179,6.2757 -3.2869,1.69519 -7.9229,4.79575 -10.3023,6.89013 -2.3793,2.09437 -4.6244,4.7481 -4.9891,5.89718 -0.3647,1.14907 -0.2526,2.37054 0.2492,2.71438 0.5018,0.34383 1.4337,3.49667 2.0708,7.0063 0.637,3.50963 1.8964,7.19676 2.7986,8.19361 0.9021,0.99685 2.8309,1.95033 4.2863,2.11885 1.8772,0.21737 2.646,0.88748 2.646,2.30639 0,1.65428 0.92141,0.85249 -3.21429,1.3429 M 411.48277,148.0911 c -0.6552,1.05644 -2.7355,3.67652 -4.623,5.82241 -1.8875,2.14589 -5.132,4.76904 -7.2101,5.82921 -2.0782,1.06017 -5.5103,1.92758 -7.6271,1.92758 -2.1168,0 -4.6829,-0.60993 -5.7024,-1.35539 -1.1348,-0.82984 -1.6089,-1.9931 -1.2225,-3 0.4231,-1.10249 1.8116,-1.64461 4.2122,-1.64461 1.9695,0 4.7962,-0.63661 6.2814,-1.41468 1.4851,-0.77808 4.1143,-2.91558 5.8425,-4.75 1.7282,-1.83443 4.0681,-5.18549 5.1997,-7.4468 1.1316,-2.26132 2.6079,-7.09882 3.2806,-10.75 0.9887,-5.36592 1.5796,-6.63852 3.0826,-6.63852 1.0226,0 2.2497,1.0125 2.7269,2.25 0.8065,2.09165 1.0138,1.9333 2.9458,-2.25 1.5511,-3.3586 2.0814,-6.52916 2.0905,-12.5 0.01,-6.40434 -0.4756,-9.04766 -2.4332,-13.252495 -2.4454,-5.252466 -2.4454,-5.252466 -6.9751,-2.516446 -3.9651,2.395026 -4.2823,2.827526 -2.5448,3.470246 1.0916,0.403825 1.9848,1.397165 1.9848,2.207435 0,0.81026 -0.4466,1.74923 -0.9924,2.08658 -0.5459,0.33735 -3.8084,1.0648 -7.25,1.61653 -3.4417,0.55174 -8.1618,2.1164 -10.4892,3.47703 -2.3274,1.36063 -4.7161,3.37911 -5.3082,4.48552 -0.5921,1.1064 -0.9379,3.45478 -0.7684,5.21862 0.2709,2.81858 -0.012,3.24411 -2.34,3.51358 -1.6183,0.18737 -2.8458,1.06232 -3.1563,2.25 -0.2796,1.06887 -0.3803,1.9434 -0.224,1.9434 0.1563,0 1.8998,-0.675 3.8743,-1.5 1.9745,-0.825 4.9544,-1.5 6.6221,-1.5 2.522,0 3.0321,0.39813 3.0321,2.36667 0,1.88411 -0.9816,2.77462 -4.8141,4.36733 -2.6477,1.10035 -6.4957,3.47715 -8.5511,5.28176 -2.0553,1.80462 -4.389,4.54198 -5.1859,6.08302 -0.7969,1.54105 -1.439,4.96175 -1.4269,7.60156 0.012,2.63981 0.89,6.71216 1.9511,9.04966 1.061,2.3375 2.4011,4.25 2.978,4.25 0.5769,0 1.0489,1.125 1.0489,2.5 0,2.10847 -0.4676,2.5 -2.9858,2.5 -2.3615,0 -3.524,-0.81331 -5.5598,-3.88952 -1.64165,-2.48072 -2.91604,-6.30518 -3.51844,-10.55889 -0.51948,-3.66815 -0.65443,-7.88037 -0.29989,-9.36048 0.35453,-1.48011 1.31072,-4.04111 2.12486,-5.69111 0.81414,-1.65 2.19467,-3.81391 3.06777,-4.80869 1.0214,-1.16372 1.4847,-3.23305 1.2991,-5.80298 -0.1817,-2.51732 0.3542,-4.99158 1.4493,-6.69131 0.9558,-1.48336 2.3067,-3.0372 3.0022,-3.45298 0.6954,-0.41577 1.5465,-2.04026 1.8913,-3.60997 0.3447,-1.56971 2.04,-4.2995 3.7673,-6.06621 1.7273,-1.7667 4.3084,-3.81615 5.7359,-4.5543 1.4274,-0.73817 4.2258,-1.64801 6.2187,-2.02187 2.2802,-0.42777 3.7989,-1.350765 4.0968,-2.489885 0.2603,-0.995566 2.6642,-3.412316 5.342,-5.370536 2.6778,-1.95823 7.226,-4.52651 10.1071,-5.707291 2.8811,-1.18077 5.9186,-1.88584 6.75,-1.56681 0.8314,0.31903 1.5116,1.02643 1.5116,1.57201 0,0.54558 -0.5963,1.549021 -1.3252,2.229871 -1.0915,1.01967 -0.783,2.28952 1.75,7.20281 2.8007,5.432491 3.0675,6.775911 2.9886,15.051521 -0.067,7.06819 -0.5598,10.08622 -2.2169,13.58662 -1.1717,2.475 -2.9174,5.625 -3.8794,7 -0.8589,1.22769 -2.35881,2.11329 -5.94333,7.96817 -3.78372,5.56117 -3.14547,6.58656 -3.68257,7.45263 z m 27.48915,-1.51935 c 0.2318,-1.52174 1.6875,-2.55243 5.2965,-3.75 3.4013,-1.12869 5.6427,-2.6475 7.0805,-4.79788 1.157,-1.73051 2.9011,-5.68178 3.8758,-8.78059 1.0068,-3.20074 1.8358,-9.18663 1.9195,-13.85915 0.1109,-6.19359 -0.3261,-9.28143 -1.7695,-12.5026 -1.4859,-3.315795 -1.6483,-4.546161 -0.7225,-5.471961 0.8546,-0.85458 1.6844,-0.89666 2.9168,-0.14793 0.9474,0.57554 2.6225,2.815421 3.7225,4.977521 1.6192,3.1827 1.9898,5.83494 1.9463,13.93111 -0.041,7.67261 -0.5865,11.57876 -2.3426,16.78336 -1.259,3.73085 -3.4638,8.17954 -4.8996,9.88598 -1.4359,1.70643 -4.0798,3.71642 -5.8753,4.46663 -1.7955,0.75022 -5.1103,1.36403 -7.3662,1.36403 -3.6007,0 -4.0627,-0.25631 -3.7822,-2.09852 z"
       id="path3037"
       inkscape:connector-curvature="0"
       sodipodi:nodetypes="ccscccsssssssscscccsscscccccssccccccscccscsscsssscssssccsssccccscscscccssccscsccscsscscscsscscssscccssssscsccssscssssccccscscsssscscscccccccscscscccssc" />
  </g>
</svg>
